<svg width="64" height="64" viewBox="0 0 64 64" xmlns="http://www.w3.org/2000/svg" role="img" aria-labelledby="title desc">
  <title id="title">Superheroes Wiki Icon - Captain America Style</title>
  <desc id="desc">Shield with bookmark and star in Captain America colors</desc>

  <!-- Shield outline (red) -->
  <path d="M32 6
       L52 14
       V28
       c0 15 -10.5 24 -20 28
       c-9.5 -4 -20 -13 -20 -28
       V14
       Z" fill="none" stroke="#D62828" stroke-width="3" stroke-linejoin="round"></path>

  <!-- Bookmark tab (blue) -->
  <path d="M28 10 h8 v10 l-4 -3 -4 3 V10 Z" fill="#003f88"></path>

  <!-- Star emblem (white) -->
  <path d="M32 22
       l2.9 6.1
       6.7 1
       -4.8 4.6
       1.1 6.6
       -5.9 -3.1
       -5.9 3.1
       1.1 -6.6
       -4.8 -4.6
       6.7 -1
       Z" fill="#ffffff"></path>

  <!-- Inner curve (light blue) -->
  <path d="M14 30
       c4 10 15 16 18 17
       c3 -1 14 -7 18 -17" fill="none" stroke="#48cae4" stroke-width="2" stroke-linecap="round"></path>
</svg>
